<svg width="10" height="14" viewBox="0 0 10 14" fill="none" xmlns="http://www.w3.org/2000/svg">
<path d="M8.4219 3.34243C8.4219 3.45269 8.11079 5.69445 7.17745 6.6132C8.4219 1.10526 3.75523 0 3.75523 0C3.75523 0 4.47079 2.75443 3.44412 4.07744C3.3819 2.57068 2.66634 1.65193 2.66634 1.65193C2.13745 4.37144 0.333008 6.72346 0.333008 8.48746C0.333008 11.5378 2.41745 14 4.99967 14C7.5819 14 9.35523 11.7895 9.66634 8.48746C9.66634 6.28245 9.66634 4.78947 8.4219 3.34243Z" fill="#E62E05"/>
<path d="M6.55523 10.4474C6.55523 11.4053 5.87079 12.1579 4.99967 12.1579C4.12856 12.1579 3.44412 11.4053 3.44412 10.4474C3.44412 9.48953 4.99967 6.17108 4.99967 6.17108C4.99967 6.17108 6.55523 9.48953 6.55523 10.4474Z" fill="#FEF0ED"/>
</svg>
